# xmcd CD database file
#
# Track frame offsets:
#	150
#	10329
#	19263
#	45635
#	57082
#	67652
#	82430
#	95254
#	116112
#	131262
#	150822
#	159861
#	178007
#	198164
#	209425
#
# Disc length: 2938 seconds
#
# Revision: 0
# Processed by: cddbd v1.5.2PL0 Copyright (c) Steve Scherf et al.
# Submitted via: CDex 1.51
#
DISCID=b80b780f
DTITLE=Doctor Jazz - Ben Yehuda Street Parate
DYEAR=1900
DGENRE=Jazz
TTITLE0=Doctor Jazz
TTITLE1=I Can't Give You Anything But Love
TTITLE2=Cabaret
TTITLE3=I Got Rythm
TTITLE4=Five Foot Two
TTITLE5=Basin Street Blues
TTITLE6=Ain't She Sweet
TTITLE7=Blue Moon
TTITLE8=Alexander's Ragtime Band
TTITLE9=As Time Goes By
TTITLE10=Hello Dolly
TTITLE11=Ain't Misbehavin'
TTITLE12=Nevertheless I'm In Live With You
TTITLE13=Bill Bailey
TTITLE14=When The Saints Go Marching In
EXTD=
EXTT0=
EXTT1=
EXTT2=
EXTT3=
EXTT4=
EXTT5=
EXTT6=
EXTT7=
EXTT8=
EXTT9=
EXTT10=
EXTT11=
EXTT12=
EXTT13=
EXTT14=
PLAYORDER=
